<svg id="wave" style="transform:rotate(0deg); transition: 0.3s" viewBox="0 0 1440 490" version="1.1" xmlns="http://www.w3.org/2000/svg"><defs><linearGradient id="sw-gradient-0" x1="0" x2="0" y1="1" y2="0"><stop stop-color="rgba(184.54, 62, 243, 1)" offset="0%"></stop><stop stop-color="rgba(11, 201.268, 255, 1)" offset="100%"></stop></linearGradient></defs><path style="transform:translate(0, 0px); opacity:1" fill="url(#sw-gradient-0)" d="M0,245L160,343L320,147L480,49L640,147L800,294L960,147L1120,147L1280,245L1440,196L1600,245L1760,294L1920,147L2080,294L2240,343L2400,0L2560,0L2720,147L2880,441L3040,392L3200,49L3360,147L3520,245L3680,196L3840,294L3840,490L3680,490L3520,490L3360,490L3200,490L3040,490L2880,490L2720,490L2560,490L2400,490L2240,490L2080,490L1920,490L1760,490L1600,490L1440,490L1280,490L1120,490L960,490L800,490L640,490L480,490L320,490L160,490L0,490Z"></path><defs><linearGradient id="sw-gradient-1" x1="0" x2="0" y1="1" y2="0"><stop stop-color="rgba(135.484, 62, 243, 1)" offset="0%"></stop><stop stop-color="rgba(11, 151.668, 255, 1)" offset="100%"></stop></linearGradient></defs><path style="transform:translate(0, 50px); opacity:0.9" fill="url(#sw-gradient-1)" d="M0,196L160,49L320,441L480,343L640,98L800,294L960,49L1120,245L1280,196L1440,441L1600,196L1760,392L1920,147L2080,196L2240,294L2400,441L2560,294L2720,245L2880,0L3040,196L3200,343L3360,98L3520,441L3680,49L3840,343L3840,490L3680,490L3520,490L3360,490L3200,490L3040,490L2880,490L2720,490L2560,490L2400,490L2240,490L2080,490L1920,490L1760,490L1600,490L1440,490L1280,490L1120,490L960,490L800,490L640,490L480,490L320,490L160,490L0,490Z"></path></svg>